<svg width="45" height="45" viewBox="0 0 45 45" fill="none" xmlns="http://www.w3.org/2000/svg">
<path fill-rule="evenodd" clip-rule="evenodd" d="M7.66749 6.27454C5.51355 8.42665 5.51355 11.8928 5.51355 18.8233V26.1746C5.51355 33.1051 5.51355 36.5712 7.66749 38.7233C9.81959 40.8772 13.2857 40.8773 20.2162 40.8773H23.8919C30.8223 40.8773 34.2885 40.8772 36.4406 38.7233C38.5945 36.5712 38.5945 33.1051 38.5945 26.1746V18.8233C38.5945 11.8928 38.5945 8.42665 36.4406 6.27454C34.2885 4.12061 30.8223 4.12061 23.8919 4.12061H20.2162C13.2857 4.12061 9.81959 4.12061 7.66749 6.27454ZM14.7027 17.4449C14.3371 17.4449 13.9865 17.5901 13.7281 17.8486C13.4696 18.1071 13.3243 18.4577 13.3243 18.8233C13.3243 19.1888 13.4696 19.5394 13.7281 19.7979C13.9865 20.0564 14.3371 20.2016 14.7027 20.2016H29.4054C29.7709 20.2016 30.1215 20.0564 30.38 19.7979C30.6385 19.5394 30.7837 19.1888 30.7837 18.8233C30.7837 18.4577 30.6385 18.1071 30.38 17.8486C30.1215 17.5901 29.7709 17.4449 29.4054 17.4449H14.7027ZM14.7027 24.7962C14.3371 24.7962 13.9865 24.9414 13.7281 25.1999C13.4696 25.4584 13.3243 25.809 13.3243 26.1746C13.3243 26.5402 13.4696 26.8908 13.7281 27.1492C13.9865 27.4077 14.3371 27.553 14.7027 27.553H23.8919C24.2574 27.553 24.608 27.4077 24.8665 27.1492C25.125 26.8908 25.2702 26.5402 25.2702 26.1746C25.2702 25.809 25.125 25.4584 24.8665 25.1999C24.608 24.9414 24.2574 24.7962 23.8919 24.7962H14.7027Z" fill="#404A9A"/>
</svg>
