<svg width="37" height="37" viewBox="0 0 37 37" fill="none" xmlns="http://www.w3.org/2000/svg">
<path d="M31.9618 19.2915L34.0433 21.3878L24.3346 31.1857L19.1755 25.982L21.257 23.8856L24.3346 26.9781L31.9618 19.2915ZM15.4585 25.982L19.9188 30.4423H5.05103V27.4688C5.05103 24.183 10.3737 21.5216 16.9453 21.5216L19.7553 21.6852L15.4585 25.982ZM16.9453 6.65381C18.5226 6.65381 20.0352 7.28038 21.1505 8.39568C22.2658 9.51099 22.8924 11.0237 22.8924 12.6009C22.8924 14.1782 22.2658 15.6909 21.1505 16.8062C20.0352 17.9215 18.5226 18.5481 16.9453 18.5481C15.368 18.5481 13.8553 17.9215 12.74 16.8062C11.6247 15.6909 10.9982 14.1782 10.9982 12.6009C10.9982 11.0237 11.6247 9.51099 12.74 8.39568C13.8553 7.28038 15.368 6.65381 16.9453 6.65381Z" fill="#20744A"/>
</svg>
