<svg width="135" height="56" viewBox="0 0 135 56" fill="none" xmlns="http://www.w3.org/2000/svg">
<rect x="0.400024" width="134.4" height="56" rx="8.96" fill="#F5A728"/>
<path d="M37.724 36.812C35.196 36.812 33.1 35.98 31.436 34.316C29.772 32.636 28.94 30.564 28.94 28.1C28.94 25.636 29.772 23.572 31.436 21.908C33.1 20.228 35.196 19.388 37.724 19.388C39.244 19.388 40.644 19.748 41.924 20.468C43.22 21.188 44.228 22.164 44.948 23.396L42.548 24.788C42.1 23.956 41.444 23.3 40.58 22.82C39.732 22.324 38.78 22.076 37.724 22.076C35.932 22.076 34.476 22.644 33.356 23.78C32.252 24.916 31.7 26.356 31.7 28.1C31.7 29.844 32.252 31.284 33.356 32.42C34.476 33.556 35.932 34.124 37.724 34.124C38.78 34.124 39.74 33.884 40.604 33.404C41.468 32.908 42.116 32.244 42.548 31.412L44.948 32.78C44.244 34.012 43.244 34.996 41.948 35.732C40.668 36.452 39.26 36.812 37.724 36.812ZM56.5535 24.5H59.1455V36.5H56.5535V34.772C55.5775 36.132 54.1775 36.812 52.3535 36.812C50.7055 36.812 49.2975 36.204 48.1295 34.988C46.9615 33.756 46.3775 32.26 46.3775 30.5C46.3775 28.724 46.9615 27.228 48.1295 26.012C49.2975 24.796 50.7055 24.188 52.3535 24.188C54.1775 24.188 55.5775 24.86 56.5535 26.204V24.5ZM50.0495 33.26C50.7695 33.98 51.6735 34.34 52.7615 34.34C53.8495 34.34 54.7535 33.98 55.4735 33.26C56.1935 32.524 56.5535 31.604 56.5535 30.5C56.5535 29.396 56.1935 28.484 55.4735 27.764C54.7535 27.028 53.8495 26.66 52.7615 26.66C51.6735 26.66 50.7695 27.028 50.0495 27.764C49.3295 28.484 48.9695 29.396 48.9695 30.5C48.9695 31.604 49.3295 32.524 50.0495 33.26ZM68.4787 24.188C69.8547 24.188 70.9667 24.628 71.8147 25.508C72.6627 26.388 73.0867 27.596 73.0867 29.132V36.5H70.4947V29.396C70.4947 28.5 70.2547 27.812 69.7747 27.332C69.2947 26.852 68.6387 26.612 67.8067 26.612C66.8947 26.612 66.1587 26.9 65.5987 27.476C65.0387 28.036 64.7587 28.9 64.7587 30.068V36.5H62.1667V24.5H64.7587V26.036C65.5427 24.804 66.7827 24.188 68.4787 24.188ZM81.5417 36.812C79.7337 36.812 78.2217 36.204 77.0057 34.988C75.8057 33.772 75.2057 32.276 75.2057 30.5C75.2057 28.708 75.8057 27.212 77.0057 26.012C78.2217 24.796 79.7337 24.188 81.5417 24.188C82.7097 24.188 83.7737 24.468 84.7337 25.028C85.6937 25.588 86.4137 26.34 86.8937 27.284L84.6617 28.58C84.3897 28.004 83.9737 27.556 83.4137 27.236C82.8697 26.9 82.2377 26.732 81.5177 26.732C80.4617 26.732 79.5737 27.092 78.8537 27.812C78.1497 28.532 77.7977 29.428 77.7977 30.5C77.7977 31.572 78.1497 32.468 78.8537 33.188C79.5737 33.908 80.4617 34.268 81.5177 34.268C82.2217 34.268 82.8537 34.1 83.4137 33.764C83.9897 33.428 84.4217 32.98 84.7097 32.42L86.9417 33.692C86.4297 34.652 85.6937 35.412 84.7337 35.972C83.7737 36.532 82.7097 36.812 81.5417 36.812ZM90.6677 31.604C90.8597 32.516 91.2997 33.22 91.9877 33.716C92.6757 34.196 93.5157 34.436 94.5077 34.436C95.8837 34.436 96.9157 33.94 97.6037 32.948L99.7397 34.196C98.5557 35.94 96.8037 36.812 94.4837 36.812C92.5317 36.812 90.9557 36.22 89.7557 35.036C88.5557 33.836 87.9557 32.324 87.9557 30.5C87.9557 28.708 88.5477 27.212 89.7317 26.012C90.9157 24.796 92.4357 24.188 94.2917 24.188C96.0517 24.188 97.4917 24.804 98.6117 26.036C99.7477 27.268 100.316 28.764 100.316 30.524C100.316 30.796 100.284 31.156 100.22 31.604H90.6677ZM90.6437 29.492H97.6997C97.5237 28.516 97.1157 27.78 96.4757 27.284C95.8517 26.788 95.1157 26.54 94.2677 26.54C93.3077 26.54 92.5077 26.804 91.8677 27.332C91.2277 27.86 90.8197 28.58 90.6437 29.492ZM102.596 36.5V18.98H105.188V36.5H102.596Z" fill="#202020"/>
</svg>
