<svg width="136" height="56" viewBox="0 0 136 56" fill="none" xmlns="http://www.w3.org/2000/svg">
<rect x="1.30005" y="0.5" width="133.4" height="55" rx="4.61111" fill="white"/>
<rect x="1.30005" y="0.5" width="133.4" height="55" rx="4.61111" stroke="#FF0808" stroke-linejoin="bevel" stroke-dasharray="8 8"/>
<path d="M38 28H28" stroke="#FF0808" stroke-linecap="round"/>
<path fill-rule="evenodd" clip-rule="evenodd" d="M33 38C38.5228 38 43 33.5228 43 28C43 22.4772 38.5228 18 33 18C27.4772 18 23 22.4772 23 28C23 33.5228 27.4772 38 33 38Z" stroke="#FF0808"/>
<path d="M57.3068 34.5H52.598V19.9545H57.456C58.8812 19.9545 60.1051 20.2457 61.1278 20.8281C62.1506 21.4058 62.9342 22.2367 63.4787 23.321C64.0279 24.4006 64.3026 25.6955 64.3026 27.206C64.3026 28.7211 64.0256 30.0232 63.4716 31.1122C62.9223 32.2012 62.1269 33.0393 61.0852 33.6264C60.0436 34.2088 58.7841 34.5 57.3068 34.5ZM54.7926 32.5824H57.1861C58.294 32.5824 59.215 32.3741 59.9489 31.9574C60.6828 31.536 61.232 30.9276 61.5966 30.1321C61.9612 29.3319 62.1435 28.3565 62.1435 27.206C62.1435 26.0649 61.9612 25.0966 61.5966 24.3011C61.2367 23.5057 60.6993 22.902 59.9844 22.4901C59.2694 22.0781 58.3816 21.8722 57.321 21.8722H54.7926V32.5824ZM71.5629 34.7202C70.488 34.7202 69.5624 34.4905 68.7859 34.0312C68.0141 33.5672 67.4175 32.9162 66.9961 32.0781C66.5794 31.2353 66.3711 30.2481 66.3711 29.1165C66.3711 27.9991 66.5794 27.0142 66.9961 26.1619C67.4175 25.3097 68.0046 24.6444 68.7575 24.1662C69.515 23.688 70.4004 23.4489 71.4137 23.4489C72.0292 23.4489 72.6258 23.5507 73.2035 23.7543C73.7811 23.9579 74.2996 24.2775 74.7589 24.7131C75.2182 25.1487 75.5804 25.7145 75.8455 26.4105C76.1107 27.1018 76.2433 27.9422 76.2433 28.9318V29.6847H67.5714V28.0938H74.1623C74.1623 27.535 74.0487 27.0402 73.8214 26.6094C73.5941 26.1738 73.2745 25.8305 72.8626 25.5795C72.4554 25.3286 71.9772 25.2031 71.4279 25.2031C70.8313 25.2031 70.3105 25.3499 69.8654 25.6435C69.4251 25.9323 69.0842 26.3111 68.8427 26.7798C68.6059 27.2438 68.4876 27.7481 68.4876 28.2926V29.5355C68.4876 30.2647 68.6154 30.8849 68.8711 31.3963C69.1315 31.9077 69.4937 32.2983 69.9577 32.5682C70.4218 32.8333 70.9639 32.9659 71.5842 32.9659C71.9866 32.9659 72.3536 32.9091 72.685 32.7955C73.0165 32.6771 73.3029 32.5019 73.5444 32.2699C73.7859 32.0379 73.9705 31.7514 74.0984 31.4105L76.1083 31.7727C75.9473 32.3646 75.6585 32.883 75.2418 33.3281C74.8299 33.7685 74.3114 34.1117 73.6864 34.358C73.0662 34.5994 72.3583 34.7202 71.5629 34.7202ZM80.723 19.9545V34.5H78.5994V19.9545H80.723ZM88.2816 34.7202C87.2068 34.7202 86.2811 34.4905 85.5046 34.0312C84.7328 33.5672 84.1362 32.9162 83.7148 32.0781C83.2982 31.2353 83.0898 30.2481 83.0898 29.1165C83.0898 27.9991 83.2982 27.0142 83.7148 26.1619C84.1362 25.3097 84.7234 24.6444 85.4762 24.1662C86.2338 23.688 87.1192 23.4489 88.1325 23.4489C88.748 23.4489 89.3446 23.5507 89.9222 23.7543C90.4999 23.9579 91.0183 24.2775 91.4776 24.7131C91.9369 25.1487 92.2991 25.7145 92.5643 26.4105C92.8294 27.1018 92.962 27.9422 92.962 28.9318V29.6847H84.2901V28.0938H90.881C90.881 27.535 90.7674 27.0402 90.5401 26.6094C90.3129 26.1738 89.9933 25.8305 89.5813 25.5795C89.1741 25.3286 88.6959 25.2031 88.1467 25.2031C87.5501 25.2031 87.0292 25.3499 86.5842 25.6435C86.1438 25.9323 85.8029 26.3111 85.5614 26.7798C85.3247 27.2438 85.2063 27.7481 85.2063 28.2926V29.5355C85.2063 30.2647 85.3342 30.8849 85.5898 31.3963C85.8503 31.9077 86.2125 32.2983 86.6765 32.5682C87.1405 32.8333 87.6826 32.9659 88.3029 32.9659C88.7054 32.9659 89.0723 32.9091 89.4038 32.7955C89.7352 32.6771 90.0217 32.5019 90.2631 32.2699C90.5046 32.0379 90.6893 31.7514 90.8171 31.4105L92.8271 31.7727C92.6661 32.3646 92.3772 32.883 91.9606 33.3281C91.5487 33.7685 91.0302 34.1117 90.4052 34.358C89.7849 34.5994 89.0771 34.7202 88.2816 34.7202ZM100.411 23.5909V25.2955H94.4517V23.5909H100.411ZM96.0497 20.9773H98.1733V31.2969C98.1733 31.7088 98.2348 32.0189 98.358 32.2273C98.4811 32.4309 98.6397 32.5705 98.8338 32.6463C99.0327 32.7173 99.2481 32.7528 99.4801 32.7528C99.6506 32.7528 99.7997 32.741 99.9276 32.7173C100.055 32.6937 100.155 32.6747 100.226 32.6605L100.609 34.4148C100.486 34.4621 100.311 34.5095 100.084 34.5568C99.8565 34.6089 99.5724 34.6373 99.2315 34.642C98.6728 34.6515 98.152 34.5521 97.669 34.3438C97.1861 34.1354 96.7955 33.8134 96.4972 33.3778C96.1989 32.9422 96.0497 32.3954 96.0497 31.7372V20.9773ZM107.344 34.7202C106.269 34.7202 105.344 34.4905 104.567 34.0312C103.795 33.5672 103.199 32.9162 102.777 32.0781C102.361 31.2353 102.152 30.2481 102.152 29.1165C102.152 27.9991 102.361 27.0142 102.777 26.1619C103.199 25.3097 103.786 24.6444 104.539 24.1662C105.296 23.688 106.182 23.4489 107.195 23.4489C107.81 23.4489 108.407 23.5507 108.985 23.7543C109.562 23.9579 110.081 24.2775 110.54 24.7131C110.999 25.1487 111.362 25.7145 111.627 26.4105C111.892 27.1018 112.025 27.9422 112.025 28.9318V29.6847H103.353V28.0938H109.944C109.944 27.535 109.83 27.0402 109.603 26.6094C109.375 26.1738 109.056 25.8305 108.644 25.5795C108.237 25.3286 107.758 25.2031 107.209 25.2031C106.613 25.2031 106.092 25.3499 105.647 25.6435C105.206 25.9323 104.865 26.3111 104.624 26.7798C104.387 27.2438 104.269 27.7481 104.269 28.2926V29.5355C104.269 30.2647 104.397 30.8849 104.652 31.3963C104.913 31.9077 105.275 32.2983 105.739 32.5682C106.203 32.8333 106.745 32.9659 107.365 32.9659C107.768 32.9659 108.135 32.9091 108.466 32.7955C108.798 32.6771 109.084 32.5019 109.326 32.2699C109.567 32.0379 109.752 31.7514 109.88 31.4105L111.89 31.7727C111.729 32.3646 111.44 32.883 111.023 33.3281C110.611 33.7685 110.093 34.1117 109.468 34.358C108.847 34.5994 108.14 34.7202 107.344 34.7202Z" fill="#FF0808"/>
</svg>
