<svg width="32" height="32" viewBox="0 0 32 32" fill="none" xmlns="http://www.w3.org/2000/svg">
<path fill-rule="evenodd" clip-rule="evenodd" d="M28.8854 4.65927H18.958V2.32001L2.64001 4.83861V26.9151L18.958 29.7257V26.2585H28.8854C29.1862 26.2742 29.4809 26.17 29.7049 25.9686C29.9289 25.7672 30.0638 25.4852 30.08 25.1844V5.73237C30.0636 5.43177 29.9285 5.14998 29.7046 4.94881C29.4806 4.74763 29.186 4.64351 28.8854 4.65927ZM29.0422 25.3627H18.9247L18.908 23.5115H21.3453V21.3555H18.8894L18.8776 20.0815H21.3453V17.9255H18.859L18.8473 16.6515H21.3453V14.4955H18.8394V13.2215H21.3453V11.0655H18.8394V9.79153H21.3453V7.63553H18.8394V5.67553H29.0422V25.3627Z" fill="#20744A"/>
<path d="M22.6774 7.61026H26.9139V9.76626H22.6774V7.61026ZM22.6774 11.0412H26.9139V13.1972H22.6774V11.0412ZM22.6774 14.4722H26.9139V16.6282H22.6774V14.4722ZM22.6774 17.9032H26.9139V20.0592H22.6774V17.9032ZM22.6774 21.3342H26.9139V23.4902H22.6774V21.3342Z" fill="#20744A"/>
<path fill-rule="evenodd" clip-rule="evenodd" d="M6.86001 10.7795L8.96309 10.659L10.2851 14.2938L11.8472 10.5091L13.9503 10.3885L11.3964 15.5492L13.9503 20.7226L11.7267 20.5727L10.2253 16.6292L8.72299 20.4227L6.67969 20.2424L9.05325 15.6727L6.86001 10.7795Z" fill="white"/>
</svg>
