<svg width="16" height="16" viewBox="0 0 16 16" fill="none" xmlns="http://www.w3.org/2000/svg">
<g clip-path="url(#clip0_1271_134)">
<path d="M11.1955 9.0667C11.3231 8.72562 11.3879 8.36422 11.3866 8.00004C11.3866 7.19142 11.0654 6.41593 10.4936 5.84415C9.92181 5.27238 9.14631 4.95116 8.3377 4.95116C7.97801 4.95158 7.62128 5.0163 7.28437 5.14227L7.99992 5.88004C8.10869 5.86264 8.21866 5.85372 8.32881 5.85338C8.90056 5.85218 9.44955 6.07726 9.85592 6.47946C10.2623 6.88166 10.493 7.42831 10.4977 8.00004C10.4973 8.11019 10.4884 8.22015 10.471 8.32893L11.1955 9.0667Z" fill="#C7D2D6"/>
<path d="M15.2398 7.791C13.742 5.02212 11.1154 3.34657 8.20871 3.34657C7.41732 3.34843 6.63123 3.47594 5.87983 3.72434L6.59538 4.44434C7.12243 4.30813 7.66436 4.23797 8.20871 4.23545C10.7109 4.23545 12.9865 5.63101 14.342 7.98211C13.8448 8.85438 13.1856 9.62371 12.3998 10.2488L13.0309 10.8799C13.9403 10.1463 14.6955 9.23998 15.2531 8.21323L15.3687 7.99989L15.2398 7.791Z" fill="#C7D2D6"/>
<path d="M2.16449 2.56884L4.14671 4.55106C2.89379 5.35777 1.86978 6.47362 1.17338 7.79105L1.05783 7.99994L1.17338 8.21327C2.67116 10.9822 5.29782 12.6577 8.20448 12.6577C9.33899 12.6575 10.4588 12.4007 11.48 11.9066L13.7022 14.1288L14.48 13.4622L2.92449 1.90662L2.16449 2.56884ZM6.49782 6.90217L9.45336 9.85771C9.11942 10.0644 8.73499 10.1751 8.34226 10.1777C8.05689 10.1777 7.77434 10.1213 7.51087 10.0117C7.24739 9.90208 7.00819 9.74146 6.80703 9.53906C6.60587 9.33666 6.44672 9.09647 6.33873 8.83233C6.23075 8.56819 6.17606 8.2853 6.17782 7.99994C6.18282 7.61175 6.29345 7.23225 6.49782 6.90217ZM5.85337 6.25772C5.43757 6.84412 5.24267 7.55874 5.3032 8.27505C5.36373 8.99135 5.67578 9.66313 6.18409 10.1714C6.6924 10.6798 7.36418 10.9918 8.08048 11.0523C8.79679 11.1129 9.51141 10.918 10.0978 10.5022L10.8089 11.2133C9.98571 11.5651 9.09974 11.7466 8.20448 11.7466C5.70226 11.7466 3.42671 10.351 2.07116 7.99994C2.72169 6.84804 3.65859 5.88359 4.79115 5.19995L5.85337 6.25772Z" fill="#C7D2D6"/>
</g>
<defs>
<clipPath id="clip0_1271_134">
<rect width="16" height="16" rx="7.70494" fill="white"/>
</clipPath>
</defs>
</svg>
