<svg width="135" height="56" viewBox="0 0 135 56" fill="none" xmlns="http://www.w3.org/2000/svg">
<rect x="1.15998" y="0.56" width="133.28" height="54.88" rx="8.4" stroke="#20744A" stroke-width="1.12"/>
<path fill-rule="evenodd" clip-rule="evenodd" d="M43.8854 16.6593H33.958V14.32L17.64 16.8386V38.9151L33.958 41.7257V38.2585H43.8854C44.1862 38.2742 44.4809 38.17 44.7049 37.9686C44.9289 37.7672 45.0638 37.4852 45.08 37.1844V17.7324C45.0636 17.4318 44.9285 17.15 44.7046 16.9488C44.4806 16.7476 44.186 16.6435 43.8854 16.6593ZM44.0422 37.3627H33.9247L33.908 35.5115H36.3453V33.3555H33.8894L33.8776 32.0815H36.3453V29.9255H33.859L33.8473 28.6515H36.3453V26.4955H33.8394V25.2215H36.3453V23.0655H33.8394V21.7915H36.3453V19.6355H33.8394V17.6755H44.0422V37.3627Z" fill="#20744A"/>
<path d="M37.6774 19.6103H41.9139V21.7663H37.6774V19.6103ZM37.6774 23.0412H41.9139V25.1972H37.6774V23.0412ZM37.6774 26.4722H41.9139V28.6282H37.6774V26.4722ZM37.6774 29.9032H41.9139V32.0592H37.6774V29.9032ZM37.6774 33.3342H41.9139V35.4902H37.6774V33.3342Z" fill="#20744A"/>
<path fill-rule="evenodd" clip-rule="evenodd" d="M21.86 22.7795L23.9631 22.659L25.2851 26.2938L26.8472 22.5091L28.9503 22.3885L26.3964 27.5492L28.9503 32.7226L26.7267 32.5727L25.2253 28.6292L23.723 32.4227L21.6797 32.2424L24.0532 27.6727L21.86 22.7795Z" fill="white"/>
<path d="M60.6611 23.5438C61.9489 23.5438 63.0161 24.0031 63.8627 24.9217C64.7182 25.8313 65.146 26.948 65.146 28.2719C65.146 29.5958 64.7182 30.717 63.8627 31.6356C63.0161 32.5452 61.9489 33 60.6611 33H56.9731V23.5438H60.6611ZM60.6611 31.8112C61.6247 31.8112 62.4127 31.4735 63.0251 30.798C63.6375 30.1226 63.9437 29.2805 63.9437 28.2719C63.9437 27.2632 63.6375 26.4212 63.0251 25.7457C62.4127 25.0703 61.6247 24.7325 60.6611 24.7325H58.2295V31.8112H60.6611ZM72.2487 32.1489C71.5552 32.8334 70.7131 33.1756 69.7225 33.1756C68.7318 33.1756 67.8898 32.8334 67.1963 32.1489C66.5119 31.4645 66.1696 30.6224 66.1696 29.6228C66.1696 28.6231 66.5119 27.7811 67.1963 27.0966C67.8898 26.4121 68.7318 26.0699 69.7225 26.0699C70.7131 26.0699 71.5552 26.4121 72.2487 27.0966C72.9421 27.7811 73.2888 28.6231 73.2888 29.6228C73.2888 30.6224 72.9421 31.4645 72.2487 32.1489ZM69.7225 32.0274C70.3979 32.0274 70.9653 31.7977 71.4246 31.3384C71.8839 30.8791 72.1136 30.3072 72.1136 29.6228C72.1136 28.9383 71.8839 28.3664 71.4246 27.9071C70.9653 27.4478 70.3979 27.2182 69.7225 27.2182C69.0561 27.2182 68.4932 27.4478 68.0339 27.9071C67.5746 28.3664 67.3449 28.9383 67.3449 29.6228C67.3449 30.3072 67.5746 30.8791 68.0339 31.3384C68.4932 31.7977 69.0561 32.0274 69.7225 32.0274ZM82.3673 26.2455H83.5966L81.5027 33H80.3004L78.7199 28.0017L77.1393 33H75.937L73.8431 26.2455H75.0724L76.5584 31.3789L78.1525 26.2455H79.2872L80.8813 31.3924L82.3673 26.2455ZM88.1698 26.0699C88.9623 26.0699 89.5972 26.3221 90.0745 26.8264C90.5518 27.3217 90.7905 27.9972 90.7905 28.8528V33H89.6152V28.9203C89.6152 28.3709 89.4666 27.9477 89.1694 27.6505C88.8722 27.3443 88.4625 27.1912 87.9401 27.1912C87.3547 27.1912 86.8819 27.3758 86.5217 27.745C86.1614 28.1053 85.9813 28.6636 85.9813 29.4201V33H84.8061V26.2455H85.9813V27.2182C86.4586 26.4527 87.1881 26.0699 88.1698 26.0699ZM92.4312 33V23.1385H93.6065V33H92.4312ZM101.1 32.1489C100.407 32.8334 99.5647 33.1756 98.5741 33.1756C97.5834 33.1756 96.7414 32.8334 96.0479 32.1489C95.3635 31.4645 95.0212 30.6224 95.0212 29.6228C95.0212 28.6231 95.3635 27.7811 96.0479 27.0966C96.7414 26.4121 97.5834 26.0699 98.5741 26.0699C99.5647 26.0699 100.407 26.4121 101.1 27.0966C101.794 27.7811 102.14 28.6231 102.14 29.6228C102.14 30.6224 101.794 31.4645 101.1 32.1489ZM98.5741 32.0274C99.2495 32.0274 99.8169 31.7977 100.276 31.3384C100.735 30.8791 100.965 30.3072 100.965 29.6228C100.965 28.9383 100.735 28.3664 100.276 27.9071C99.8169 27.4478 99.2495 27.2182 98.5741 27.2182C97.9076 27.2182 97.3448 27.4478 96.8855 27.9071C96.4262 28.3664 96.1965 28.9383 96.1965 29.6228C96.1965 30.3072 96.4262 30.8791 96.8855 31.3384C97.3448 31.7977 97.9076 32.0274 98.5741 32.0274ZM109.119 26.2455H110.294V33H109.119V31.8382C108.533 32.7298 107.682 33.1756 106.565 33.1756C105.62 33.1756 104.814 32.8334 104.147 32.1489C103.481 31.4555 103.148 30.6134 103.148 29.6228C103.148 28.6321 103.481 27.7946 104.147 27.1101C104.814 26.4167 105.62 26.0699 106.565 26.0699C107.682 26.0699 108.533 26.5157 109.119 27.4073V26.2455ZM106.714 32.0409C107.398 32.0409 107.97 31.8112 108.43 31.3519C108.889 30.8836 109.119 30.3072 109.119 29.6228C109.119 28.9383 108.889 28.3664 108.43 27.9071C107.97 27.4388 107.398 27.2047 106.714 27.2047C106.039 27.2047 105.471 27.4388 105.012 27.9071C104.553 28.3664 104.323 28.9383 104.323 29.6228C104.323 30.3072 104.553 30.8836 105.012 31.3519C105.471 31.8112 106.039 32.0409 106.714 32.0409ZM117.667 23.5438H118.843V33H117.667V31.8382C117.082 32.7298 116.231 33.1756 115.114 33.1756C114.168 33.1756 113.362 32.8334 112.696 32.1489C112.03 31.4555 111.696 30.6134 111.696 29.6228C111.696 28.6321 112.03 27.7946 112.696 27.1101C113.362 26.4167 114.168 26.0699 115.114 26.0699C116.231 26.0699 117.082 26.5157 117.667 27.4073V23.5438ZM115.263 32.0409C115.947 32.0409 116.519 31.8112 116.978 31.3519C117.438 30.8836 117.667 30.3072 117.667 29.6228C117.667 28.9383 117.438 28.3664 116.978 27.9071C116.519 27.4388 115.947 27.2047 115.263 27.2047C114.587 27.2047 114.02 27.4388 113.561 27.9071C113.101 28.3664 112.872 28.9383 112.872 29.6228C112.872 30.3072 113.101 30.8836 113.561 31.3519C114.02 31.8112 114.587 32.0409 115.263 32.0409Z" fill="#20744A"/>
</svg>
