<svg width="135" height="56" viewBox="0 0 135 56" fill="none" xmlns="http://www.w3.org/2000/svg">
<rect width="134.4" height="56" rx="8.96" fill="#20744A"/>
<path d="M46.472 36.812C44.856 36.812 43.48 36.444 42.344 35.708C41.224 34.972 40.44 33.964 39.992 32.684L42.368 31.292C43.04 33.18 44.432 34.124 46.544 34.124C47.584 34.124 48.36 33.924 48.872 33.524C49.4 33.108 49.664 32.572 49.664 31.916C49.664 31.228 49.384 30.708 48.824 30.356C48.264 29.988 47.272 29.588 45.848 29.156C45.048 28.916 44.4 28.692 43.904 28.484C43.408 28.276 42.88 27.988 42.32 27.62C41.776 27.236 41.368 26.764 41.096 26.204C40.824 25.644 40.688 24.988 40.688 24.236C40.688 22.748 41.216 21.572 42.272 20.708C43.328 19.828 44.6 19.388 46.088 19.388C47.432 19.388 48.608 19.716 49.616 20.372C50.624 21.028 51.4 21.932 51.944 23.084L49.616 24.428C48.912 22.86 47.736 22.076 46.088 22.076C45.288 22.076 44.648 22.268 44.168 22.652C43.688 23.02 43.448 23.524 43.448 24.164C43.448 24.788 43.688 25.284 44.168 25.652C44.664 26.004 45.552 26.38 46.832 26.78C47.472 26.988 47.936 27.148 48.224 27.26C48.528 27.356 48.944 27.516 49.472 27.74C50.016 27.964 50.424 28.188 50.696 28.412C50.968 28.636 51.256 28.916 51.56 29.252C51.88 29.588 52.104 29.972 52.232 30.404C52.36 30.836 52.424 31.324 52.424 31.868C52.424 33.388 51.872 34.596 50.768 35.492C49.68 36.372 48.248 36.812 46.472 36.812ZM64.466 24.5H67.058V36.5H64.466V34.772C63.49 36.132 62.09 36.812 60.266 36.812C58.618 36.812 57.21 36.204 56.042 34.988C54.874 33.756 54.29 32.26 54.29 30.5C54.29 28.724 54.874 27.228 56.042 26.012C57.21 24.796 58.618 24.188 60.266 24.188C62.09 24.188 63.49 24.86 64.466 26.204V24.5ZM57.962 33.26C58.682 33.98 59.586 34.34 60.674 34.34C61.762 34.34 62.666 33.98 63.386 33.26C64.106 32.524 64.466 31.604 64.466 30.5C64.466 29.396 64.106 28.484 63.386 27.764C62.666 27.028 61.762 26.66 60.674 26.66C59.586 26.66 58.682 27.028 57.962 27.764C57.242 28.484 56.882 29.396 56.882 30.5C56.882 31.604 57.242 32.524 57.962 33.26ZM78.2152 24.5H81.0472L76.3672 36.5H73.3672L68.6872 24.5H71.5192L74.8792 33.62L78.2152 24.5ZM84.2598 31.604C84.4518 32.516 84.8918 33.22 85.5798 33.716C86.2678 34.196 87.1078 34.436 88.0998 34.436C89.4758 34.436 90.5078 33.94 91.1958 32.948L93.3318 34.196C92.1478 35.94 90.3958 36.812 88.0758 36.812C86.1238 36.812 84.5478 36.22 83.3478 35.036C82.1478 33.836 81.5478 32.324 81.5478 30.5C81.5478 28.708 82.1398 27.212 83.3238 26.012C84.5078 24.796 86.0278 24.188 87.8838 24.188C89.6438 24.188 91.0838 24.804 92.2038 26.036C93.3398 27.268 93.9078 28.764 93.9078 30.524C93.9078 30.796 93.8758 31.156 93.8118 31.604H84.2598ZM84.2358 29.492H91.2918C91.1158 28.516 90.7078 27.78 90.0678 27.284C89.4438 26.788 88.7078 26.54 87.8598 26.54C86.8998 26.54 86.0998 26.804 85.4598 27.332C84.8198 27.86 84.4118 28.58 84.2358 29.492Z" fill="#E9FFF4"/>
</svg>
