<svg width="20" height="18" viewBox="0 0 20 18" fill="none" xmlns="http://www.w3.org/2000/svg">
<path fill-rule="evenodd" clip-rule="evenodd" d="M0.26351 7.42642C0.09083 7.72862 0 8.07067 0 8.41867V15.8876C0 16.9922 0.89543 17.8876 2 17.8876H18C19.1046 17.8876 20 16.9922 20 15.8876V8.41867C20 8.07067 19.9092 7.72862 19.7365 7.42642L16.5758 1.89529C16.2198 1.27214 15.5571 0.887573 14.8394 0.887573H5.16065C4.44293 0.887573 3.78025 1.27214 3.42416 1.89529L0.26351 7.42642ZM15.2735 2.6395C15.1845 2.48371 15.0188 2.38757 14.8394 2.38757H5.16065C4.98122 2.38757 4.81555 2.48371 4.72652 2.6395L1.72763 7.88757H5.5C6.05229 7.88757 6.4856 8.34437 6.64104 8.87437C7.06707 10.3269 8.4097 11.3876 10 11.3876C11.5903 11.3876 12.9329 10.3269 13.359 8.87437C13.5144 8.34437 13.9477 7.88757 14.5 7.88757H18.2724L15.2735 2.6395ZM18.5 9.38757H14.7707C14.1336 11.4149 12.2407 12.8876 10 12.8876C7.7593 12.8876 5.86636 11.4149 5.22932 9.38757H1.5V15.8876C1.5 16.1637 1.72386 16.3876 2 16.3876H18C18.2761 16.3876 18.5 16.1637 18.5 15.8876V9.38757Z" fill="#040404"/>
</svg>
