<svg width="24" height="20" viewBox="0 0 24 20" fill="none" xmlns="http://www.w3.org/2000/svg">
<path fill-rule="evenodd" clip-rule="evenodd" d="M1.28986 7.92349C1.09991 8.24346 1 8.60564 1 8.97411V16.8824C1 18.0519 1.98497 19 3.2 19H20.8C22.0151 19 23 18.0519 23 16.8824V8.97411C23 8.60564 22.9001 8.24346 22.7101 7.92349L19.2334 2.067C18.8418 1.40719 18.1128 1 17.3233 1H6.67671C5.88722 1 5.15828 1.40719 4.76658 2.067L1.28986 7.92349ZM17.8008 2.85498C17.703 2.69003 17.5207 2.58824 17.3233 2.58824H6.67671C6.47934 2.58824 6.29711 2.69003 6.19917 2.85498L2.90039 8.41177H7.05C7.65752 8.41177 8.13416 8.89544 8.30514 9.45661C8.77378 10.9946 10.2507 12.1176 12 12.1176C13.7493 12.1176 15.2262 10.9946 15.6949 9.45661C15.8658 8.89544 16.3425 8.41177 16.95 8.41177H21.0996L17.8008 2.85498ZM21.35 10H17.2478C16.547 12.1466 14.4648 13.7059 12 13.7059C9.53523 13.7059 7.453 12.1466 6.75225 10H2.65V16.8824C2.65 17.1747 2.89625 17.4118 3.2 17.4118H20.8C21.1037 17.4118 21.35 17.1747 21.35 16.8824V10Z" fill="black" stroke="black" stroke-width="0.6"/>
</svg>
