<svg width="34" height="24" viewBox="0 0 34 24" fill="none" xmlns="http://www.w3.org/2000/svg">
<path d="M8.1543 13.0039C9.73944 13.0842 11 14.3949 11 16V20L10.9961 20.1543C10.9184 21.6883 9.68834 22.9184 8.1543 22.9961L8 23H4C2.39489 23 1.08421 21.7394 1.00391 20.1543L1 20V16C1 14.3431 2.34315 13 4 13H8L8.1543 13.0039ZM18 13C20.7614 13 23 15.2386 23 18C23 20.7614 20.7614 23 18 23C15.2386 23 13 20.7614 13 18C13 15.2386 15.2386 13 18 13ZM18 14.5C16.067 14.5 14.5 16.067 14.5 18C14.5 19.933 16.067 21.5 18 21.5C19.933 21.5 21.5 19.933 21.5 18C21.5 16.067 19.933 14.5 18 14.5ZM4 14.5C3.17157 14.5 2.5 15.1716 2.5 16V20C2.5 20.8284 3.17157 21.5 4 21.5H8C8.82843 21.5 9.5 20.8284 9.5 20V16C9.5 15.1716 8.82843 14.5 8 14.5H4ZM6 1C8.76142 1 11 3.23858 11 6C11 8.76142 8.76142 11 6 11C3.23858 11 1 8.76142 1 6C1 3.23858 3.23858 1 6 1ZM20.1543 1.00391C21.7394 1.08421 23 2.39489 23 4V8L22.9961 8.1543C22.9184 9.68834 21.6883 10.9184 20.1543 10.9961L20 11H16C14.3949 11 13.0842 9.73944 13.0039 8.1543L13 8V4C13 2.34315 14.3431 1 16 1H20L20.1543 1.00391ZM6 2.5C4.067 2.5 2.5 4.067 2.5 6C2.5 7.933 4.067 9.5 6 9.5C7.933 9.5 9.5 7.933 9.5 6C9.5 4.067 7.933 2.5 6 2.5ZM16 2.5C15.1716 2.5 14.5 3.17157 14.5 4V8C14.5 8.82843 15.1716 9.5 16 9.5H20C20.8284 9.5 21.5 8.82843 21.5 8V4C21.5 3.17157 20.8284 2.5 20 2.5H16Z" fill="black"/>
<path d="M8.1543 13.0039L8.16442 12.8041L8.15936 12.804L8.1543 13.0039ZM11 16H11.2H11ZM11 20L11.2 20.0051V20H11ZM10.9961 20.1543L11.1959 20.1644L11.196 20.1594L10.9961 20.1543ZM8.1543 22.9961L8.15936 23.1961L8.16442 23.1958L8.1543 22.9961ZM8 23V23.2001L8.00506 23.1999L8 23ZM4 23V23.2V23ZM1.00391 20.1543L0.803906 20.1594L0.804162 20.1644L1.00391 20.1543ZM1 20H0.799936L0.800064 20.0051L1 20ZM1 16H0.8H1ZM4 13V12.8V13ZM8 13L8.00506 12.8H8V13ZM4 14.5V14.3V14.5ZM2.5 16H2.3H2.5ZM2.5 20H2.3H2.5ZM4 21.5V21.7V21.5ZM8 21.5V21.7V21.5ZM9.5 20H9.7H9.5ZM9.5 16H9.7H9.5ZM8 14.5V14.3V14.5ZM20.1543 1.00391L20.1644 0.804098L20.1594 0.80397L20.1543 1.00391ZM23 4H23.2H23ZM23 8L23.2 8.00506V8H23ZM22.9961 8.1543L23.1959 8.16442L23.196 8.15936L22.9961 8.1543ZM20.1543 10.9961L20.1594 11.1961L20.1644 11.1958L20.1543 10.9961ZM20 11V11.2001L20.0051 11.1999L20 11ZM16 11V11.2V11ZM13.0039 8.1543L12.8039 8.15936L12.8042 8.16442L13.0039 8.1543ZM13 8H12.7999L12.8001 8.00506L13 8ZM13 4H12.8H13ZM16 1V0.8V1ZM20 1L20.0051 0.8H20V1ZM16 2.5V2.3V2.5ZM14.5 4H14.3H14.5ZM14.5 8H14.3H14.5ZM16 9.5V9.7V9.5ZM20 9.5V9.7V9.5ZM21.5 8H21.7H21.5ZM21.5 4H21.7H21.5ZM20 2.5V2.3V2.5ZM8.1543 13.0039L8.14418 13.2037C9.62348 13.2786 10.8 14.502 10.8 16H11H11.2C11.2 14.2878 9.85541 12.8898 8.16442 12.8042L8.1543 13.0039ZM11 16H10.8V20H11H11.2V16H11ZM11 20L10.8001 19.9949L10.7962 20.1492L10.9961 20.1543L11.196 20.1594L11.1999 20.0051L11 20ZM10.9961 20.1543L10.7963 20.1442C10.7238 21.5757 9.57572 22.7238 8.14418 22.7964L8.1543 22.9961L8.16442 23.1958C9.80096 23.1129 11.1129 21.801 11.1958 20.1644L10.9961 20.1543ZM8.1543 22.9961L8.14924 22.7962L7.99494 22.8001L8 23L8.00506 23.1999L8.15936 23.196L8.1543 22.9961ZM8 23V22.8H4V23V23.2H8V23ZM4 23V22.8C2.50196 22.8 1.2786 21.6235 1.20365 20.1442L1.00391 20.1543L0.804162 20.1644C0.889833 21.8554 2.28783 23.2 4 23.2V23ZM1.00391 20.1543L1.20384 20.1492L1.19994 19.9949L1 20L0.800064 20.0051L0.80397 20.1594L1.00391 20.1543ZM1 20H1.2V16H1H0.8V20H1ZM1 16H1.2C1.2 14.4536 2.4536 13.2 4 13.2V13V12.8C2.23269 12.8 0.8 14.2327 0.8 16H1ZM4 13V13.2H8V13V12.8H4V13ZM8 13L7.99494 13.1999L8.14924 13.2038L8.1543 13.0039L8.15936 12.804L8.00506 12.8001L8 13ZM18 13V13.2C20.651 13.2 22.8 15.349 22.8 18H23H23.2C23.2 15.1281 20.8719 12.8 18 12.8V13ZM23 18H22.8C22.8 20.651 20.651 22.8 18 22.8V23V23.2C20.8719 23.2 23.2 20.8719 23.2 18H23ZM18 23V22.8C15.349 22.8 13.2 20.651 13.2 18H13H12.8C12.8 20.8719 15.1281 23.2 18 23.2V23ZM13 18H13.2C13.2 15.349 15.349 13.2 18 13.2V13V12.8C15.1281 12.8 12.8 15.1281 12.8 18H13ZM18 14.5V14.3C15.9565 14.3 14.3 15.9565 14.3 18H14.5H14.7C14.7 16.1775 16.1775 14.7 18 14.7V14.5ZM14.5 18H14.3C14.3 20.0435 15.9565 21.7 18 21.7V21.5V21.3C16.1775 21.3 14.7 19.8225 14.7 18H14.5ZM18 21.5V21.7C20.0435 21.7 21.7 20.0435 21.7 18H21.5H21.3C21.3 19.8225 19.8225 21.3 18 21.3V21.5ZM21.5 18H21.7C21.7 15.9565 20.0435 14.3 18 14.3V14.5V14.7C19.8225 14.7 21.3 16.1775 21.3 18H21.5ZM4 14.5V14.3C3.06112 14.3 2.3 15.0611 2.3 16H2.5H2.7C2.7 15.282 3.28203 14.7 4 14.7V14.5ZM2.5 16H2.3V20H2.5H2.7V16H2.5ZM2.5 20H2.3C2.3 20.9389 3.06112 21.7 4 21.7V21.5V21.3C3.28203 21.3 2.7 20.718 2.7 20H2.5ZM4 21.5V21.7H8V21.5V21.3H4V21.5ZM8 21.5V21.7C8.93888 21.7 9.7 20.9389 9.7 20H9.5H9.3C9.3 20.718 8.71797 21.3 8 21.3V21.5ZM9.5 20H9.7V16H9.5H9.3V20H9.5ZM9.5 16H9.7C9.7 15.0611 8.93888 14.3 8 14.3V14.5V14.7C8.71797 14.7 9.3 15.282 9.3 16H9.5ZM8 14.5V14.3H4V14.5V14.7H8V14.5ZM6 1V1.2C8.65097 1.2 10.8 3.34903 10.8 6H11H11.2C11.2 3.12812 8.87188 0.8 6 0.8V1ZM11 6H10.8C10.8 8.65097 8.65097 10.8 6 10.8V11V11.2C8.87188 11.2 11.2 8.87188 11.2 6H11ZM6 11V10.8C3.34903 10.8 1.2 8.65097 1.2 6H1H0.8C0.8 8.87188 3.12812 11.2 6 11.2V11ZM1 6H1.2C1.2 3.34903 3.34903 1.2 6 1.2V1V0.8C3.12812 0.8 0.8 3.12812 0.8 6H1ZM20.1543 1.00391L20.1442 1.20365C21.6235 1.2786 22.8 2.50196 22.8 4H23H23.2C23.2 2.28783 21.8554 0.889833 20.1644 0.804162L20.1543 1.00391ZM23 4H22.8V8H23H23.2V4H23ZM23 8L22.8001 7.99494L22.7962 8.14924L22.9961 8.1543L23.196 8.15936L23.1999 8.00506L23 8ZM22.9961 8.1543L22.7964 8.14418C22.7238 9.57572 21.5757 10.7238 20.1442 10.7963L20.1543 10.9961L20.1644 11.1958C21.801 11.1129 23.1129 9.80096 23.1958 8.16442L22.9961 8.1543ZM20.1543 10.9961L20.1492 10.7962L19.9949 10.8001L20 11L20.0051 11.1999L20.1594 11.196L20.1543 10.9961ZM20 11V10.8H16V11V11.2H20V11ZM16 11V10.8C14.502 10.8 13.2786 9.62348 13.2037 8.14418L13.0039 8.1543L12.8042 8.16442C12.8898 9.85541 14.2878 11.2 16 11.2V11ZM13.0039 8.1543L13.2038 8.14924L13.1999 7.99494L13 8L12.8001 8.00506L12.804 8.15936L13.0039 8.1543ZM13 8H13.2V4H13H12.8V8H13ZM13 4H13.2C13.2 2.4536 14.4536 1.2 16 1.2V1V0.8C14.2327 0.8 12.8 2.23269 12.8 4H13ZM16 1V1.2H20V1V0.8H16V1ZM20 1L19.9949 1.19994L20.1492 1.20384L20.1543 1.00391L20.1594 0.80397L20.0051 0.800064L20 1ZM6 2.5V2.3C3.95655 2.3 2.3 3.95655 2.3 6H2.5H2.7C2.7 4.17746 4.17746 2.7 6 2.7V2.5ZM2.5 6H2.3C2.3 8.04345 3.95655 9.7 6 9.7V9.5V9.3C4.17746 9.3 2.7 7.82254 2.7 6H2.5ZM6 9.5V9.7C8.04345 9.7 9.7 8.04345 9.7 6H9.5H9.3C9.3 7.82254 7.82254 9.3 6 9.3V9.5ZM9.5 6H9.7C9.7 3.95655 8.04345 2.3 6 2.3V2.5V2.7C7.82254 2.7 9.3 4.17746 9.3 6H9.5ZM16 2.5V2.3C15.0611 2.3 14.3 3.06112 14.3 4H14.5H14.7C14.7 3.28203 15.282 2.7 16 2.7V2.5ZM14.5 4H14.3V8H14.5H14.7V4H14.5ZM14.5 8H14.3C14.3 8.93888 15.0611 9.7 16 9.7V9.5V9.3C15.282 9.3 14.7 8.71797 14.7 8H14.5ZM16 9.5V9.7H20V9.5V9.3H16V9.5ZM20 9.5V9.7C20.9389 9.7 21.7 8.93888 21.7 8H21.5H21.3C21.3 8.71797 20.718 9.3 20 9.3V9.5ZM21.5 8H21.7V4H21.5H21.3V8H21.5ZM21.5 4H21.7C21.7 3.06112 20.9389 2.3 20 2.3V2.5V2.7C20.718 2.7 21.3 3.28203 21.3 4H21.5ZM20 2.5V2.3H16V2.5V2.7H20V2.5Z" fill="black"/>
<path d="M33 10.25C33 10.6642 32.6642 11 32.25 11H25.75C25.3358 11 25 10.6642 25 10.25C25 9.83579 25.3358 9.5 25.75 9.5H32.25C32.6642 9.5 33 9.83579 33 10.25Z" fill="black" stroke="black" stroke-width="0.4"/>
<path d="M31 13.75C31 14.1642 30.6642 14.5 30.25 14.5H25.75C25.3358 14.5 25 14.1642 25 13.75C25 13.3358 25.3358 13 25.75 13H30.25C30.6642 13 31 13.3358 31 13.75Z" fill="black" stroke="black" stroke-width="0.4"/>
</svg>
