<svg width="22" height="22" viewBox="0 0 22 22" fill="none" xmlns="http://www.w3.org/2000/svg">
<path fill-rule="evenodd" clip-rule="evenodd" d="M20.8119 9.43208C21.0199 10.5169 20.1046 11.4208 19 11.4208H12.5C11.3954 11.4208 10.5 10.5254 10.5 9.42078V2.92081C10.5 1.81624 11.4039 0.900919 12.4887 1.10889C16.6928 1.91486 20.006 5.22799 20.8119 9.43208ZM19.3388 9.71448C18.6484 6.11371 15.8071 3.27238 12.2063 2.58207C12.1795 2.57692 12.1693 2.58015 12.1663 2.58112C12.1604 2.58297 12.1419 2.59014 12.1166 2.61406C12.061 2.66642 12 2.77413 12 2.92081V9.42078C12 9.69698 12.2239 9.92078 12.5 9.92078H19C19.1467 9.92078 19.2544 9.85978 19.3068 9.80428C19.3307 9.77888 19.3377 9.76088 19.3396 9.75488C19.3406 9.75178 19.3439 9.74138 19.3388 9.71448Z" fill="black" stroke="black" stroke-width="0.8"/>
<path d="M8.12681 2.21967C8.5803 2.10305 9 2.46231 9 2.93052C9 3.29641 8.7384 3.6068 8.38544 3.70328C4.99326 4.63057 2.5 7.73454 2.5 11.4208C2.5 15.8391 6.08172 19.4208 10.5 19.4208C14.1863 19.4208 17.2903 16.9276 18.2176 13.5354C18.314 13.1825 18.6244 12.9208 18.9903 12.9208C19.4585 12.9208 19.8178 13.3406 19.7012 13.794C18.6472 17.8924 14.9273 20.9208 10.5 20.9208C5.2533 20.9208 1 16.6675 1 11.4208C1 6.99357 4.02848 3.27364 8.12681 2.21967Z" fill="black" stroke="black" stroke-width="0.8"/>
</svg>
