<svg width="20" height="20" viewBox="0 0 20 20" fill="none" xmlns="http://www.w3.org/2000/svg">
<path fill-rule="evenodd" clip-rule="evenodd" d="M19.891 8.39875C20.099 9.48355 19.1837 10.3875 18.0791 10.3875H11.5791C10.4745 10.3875 9.5791 9.49205 9.5791 8.38745V1.88748C9.5791 0.782914 10.483 -0.132406 11.5678 0.075564C15.7719 0.881534 19.0851 4.19466 19.891 8.39875ZM18.4179 8.68115C17.7275 5.08038 14.8862 2.23905 11.2854 1.54874C11.2586 1.54359 11.2484 1.54682 11.2454 1.54779C11.2395 1.54964 11.221 1.55681 11.1957 1.58073C11.1401 1.63309 11.0791 1.7408 11.0791 1.88748V8.38745C11.0791 8.66365 11.303 8.88745 11.5791 8.88745H18.0791C18.2258 8.88745 18.3335 8.82645 18.3859 8.77095C18.4098 8.74555 18.4168 8.72755 18.4187 8.72155C18.4197 8.71845 18.423 8.70805 18.4179 8.68115Z" fill="#040404"/>
<path d="M7.20591 1.18635C7.6594 1.06973 8.0791 1.42899 8.0791 1.8972C8.0791 2.26309 7.8175 2.57348 7.46454 2.66996C4.07236 3.59725 1.5791 6.70122 1.5791 10.3875C1.5791 14.8058 5.16082 18.3875 9.5791 18.3875C13.2654 18.3875 16.3694 15.8943 17.2967 12.5021C17.3931 12.1492 17.7035 11.8875 18.0694 11.8875C18.5376 11.8875 18.8969 12.3073 18.7803 12.7607C17.7263 16.8591 14.0064 19.8875 9.5791 19.8875C4.3324 19.8875 0.0791016 15.6342 0.0791016 10.3875C0.0791016 5.96025 3.10758 2.24032 7.20591 1.18635Z" fill="#040404"/>
</svg>
