<svg width="21" height="22" viewBox="0 0 21 22" fill="none" xmlns="http://www.w3.org/2000/svg">
<path d="M3.15909 21C2.56534 21 2.05723 20.7826 1.63477 20.3478C1.21231 19.9129 1.00072 19.3896 1 18.7778V3.22222C1 2.61111 1.21159 2.08815 1.63477 1.65333C2.05795 1.21852 2.56606 1.00074 3.15909 1H9.63636C9.94223 1 10.1988 1.10667 10.4061 1.32C10.6134 1.53333 10.7166 1.79704 10.7159 2.11111C10.7152 2.42518 10.6116 2.68926 10.405 2.90333C10.1984 3.11741 9.94223 3.2237 9.63636 3.22222H3.15909V18.7778H9.63636C9.94223 18.7778 10.1988 18.8844 10.4061 19.0978C10.6134 19.3111 10.7166 19.5748 10.7159 19.8889C10.7152 20.2029 10.6116 20.467 10.405 20.6811C10.1984 20.8952 9.94223 21.0015 9.63636 21H3.15909ZM16.3026 12.1111H8.55682C8.25095 12.1111 7.99473 12.0044 7.78818 11.7911C7.58163 11.5778 7.47799 11.3141 7.47727 11C7.47655 10.6859 7.58019 10.4222 7.78818 10.2089C7.99617 9.99555 8.25239 9.88888 8.55682 9.88888H16.3026L14.2784 7.80555C14.0805 7.60185 13.9815 7.35185 13.9815 7.05555C13.9815 6.75925 14.0805 6.5 14.2784 6.27777C14.4763 6.05555 14.7282 5.93963 15.0341 5.93C15.34 5.92037 15.6009 6.02703 15.8168 6.25L19.6761 10.2222C19.892 10.4444 20 10.7037 20 11C20 11.2963 19.892 11.5555 19.6761 11.7778L15.8168 15.75C15.6009 15.9722 15.3446 16.0789 15.0481 16.07C14.7516 16.0611 14.495 15.9452 14.2784 15.7222C14.0805 15.5 13.9862 15.2363 13.9956 14.9311C14.0049 14.6259 14.1082 14.3711 14.3054 14.1667L16.3026 12.1111Z" fill="black" stroke="black" stroke-width="0.4"/>
</svg>
