<svg width="18" height="20" viewBox="0 0 18 20" fill="none" xmlns="http://www.w3.org/2000/svg">
<path d="M2.04545 19.8876C1.48295 19.8876 1.00159 19.681 0.601364 19.2679C0.201136 18.8549 0.000681818 18.3577 0 17.7764V2.99868C0 2.41813 0.200455 1.92131 0.601364 1.50824C1.00227 1.09517 1.48364 0.888277 2.04545 0.887573H8.18182C8.47159 0.887573 8.71466 0.988907 8.91102 1.19157C9.10739 1.39424 9.20523 1.64476 9.20455 1.94313C9.20386 2.2415 9.10568 2.49237 8.91 2.69574C8.71432 2.89911 8.47159 3.00009 8.18182 2.99868H2.04545V17.7764H8.18182C8.47159 17.7764 8.71466 17.8778 8.91102 18.0804C9.10739 18.2831 9.20523 18.5336 9.20455 18.832C9.20386 19.1304 9.10568 19.3812 8.91 19.5846C8.71432 19.788 8.47159 19.889 8.18182 19.8876H2.04545ZM14.4972 11.4431H7.15909C6.86932 11.4431 6.62659 11.3418 6.43091 11.1391C6.23523 10.9365 6.13705 10.6859 6.13636 10.3876C6.13568 10.0892 6.23386 9.83868 6.43091 9.63601C6.62795 9.43334 6.87068 9.33201 7.15909 9.33201H14.4972L12.5795 7.35285C12.392 7.15933 12.2983 6.92183 12.2983 6.64035C12.2983 6.35887 12.392 6.11257 12.5795 5.90146C12.767 5.69035 13.0057 5.58022 13.2955 5.57107C13.5852 5.56192 13.8324 5.66325 14.0369 5.87507L17.6932 9.64868C17.8977 9.85979 18 10.1061 18 10.3876C18 10.669 17.8977 10.9153 17.6932 11.1265L14.0369 14.9001C13.8324 15.1112 13.5897 15.2125 13.3088 15.2041C13.0278 15.1956 12.7848 15.0855 12.5795 14.8737C12.392 14.6626 12.3027 14.412 12.3116 14.1221C12.3205 13.8322 12.4183 13.5901 12.6051 13.3959L14.4972 11.4431Z" fill="#040404"/>
</svg>
