<svg width="18" height="19" viewBox="0 0 18 19" fill="none" xmlns="http://www.w3.org/2000/svg">
<path d="M9 18.8876C6.9 18.8876 5.04167 18.2502 3.425 16.9756C1.80833 15.7009 0.758333 14.0716 0.275 12.0876C0.208333 11.8376 0.258333 11.6086 0.425 11.4006C0.591667 11.1926 0.816667 11.0716 1.1 11.0376C1.36667 11.0042 1.60833 11.0542 1.825 11.1876C2.04167 11.3209 2.19167 11.5209 2.275 11.7876C2.675 13.2876 3.5 14.5126 4.75 15.4626C6 16.4126 7.41667 16.8876 9 16.8876C10.95 16.8876 12.6043 16.2086 13.963 14.8506C15.3217 13.4926 16.0007 11.8382 16 9.88757C15.9993 7.93691 15.3203 6.28291 13.963 4.92557C12.6057 3.56824 10.9513 2.88891 9 2.88757C7.85 2.88757 6.775 3.15424 5.775 3.68757C4.775 4.22091 3.93333 4.95424 3.25 5.88757H5C5.28333 5.88757 5.521 5.98357 5.713 6.17557C5.905 6.36757 6.00067 6.60491 6 6.88757C5.99933 7.17024 5.90333 7.40791 5.712 7.60057C5.52067 7.79324 5.28333 7.88891 5 7.88757H1C0.716667 7.88757 0.479333 7.79157 0.288 7.59957C0.0966668 7.40757 0.000666667 7.17024 0 6.88757V2.88757C0 2.60424 0.0960001 2.36691 0.288 2.17557C0.48 1.98424 0.717333 1.88824 1 1.88757C1.28267 1.88691 1.52033 1.98291 1.713 2.17557C1.90567 2.36824 2.00133 2.60557 2 2.88757V4.23757C2.85 3.17091 3.88767 2.34591 5.113 1.76257C6.33833 1.17924 7.634 0.887573 9 0.887573C10.25 0.887573 11.421 1.12524 12.513 1.60057C13.605 2.07591 14.555 2.71724 15.363 3.52457C16.171 4.33191 16.8127 5.28191 17.288 6.37457C17.7633 7.46724 18.0007 8.63824 18 9.88757C17.9993 11.1369 17.762 12.3079 17.288 13.4006C16.814 14.4932 16.1723 15.4432 15.363 16.2506C14.5537 17.0579 13.6037 17.6996 12.513 18.1756C11.4223 18.6516 10.2513 18.8889 9 18.8876ZM10 9.48757L12.5 11.9876C12.6833 12.1709 12.775 12.4042 12.775 12.6876C12.775 12.9709 12.6833 13.2042 12.5 13.3876C12.3167 13.5709 12.0833 13.6626 11.8 13.6626C11.5167 13.6626 11.2833 13.5709 11.1 13.3876L8.3 10.5876C8.2 10.4876 8.125 10.3752 8.075 10.2506C8.025 10.1259 8 9.99657 8 9.86257V5.88757C8 5.60424 8.096 5.36691 8.288 5.17557C8.48 4.98424 8.71733 4.88824 9 4.88757C9.28267 4.88691 9.52033 4.98291 9.713 5.17557C9.90567 5.36824 10.0013 5.60557 10 5.88757V9.48757Z" fill="#040404"/>
</svg>
