<svg width="22" height="22" viewBox="0 0 22 22" fill="none" xmlns="http://www.w3.org/2000/svg">
<path d="M21 10.99C21 5.475 16.52 1 11 1C5.48 1 1 5.475 1 10.99C1 14.0275 2.38 16.765 4.54 18.6025C4.56 18.6225 4.58 18.6225 4.58 18.6425C4.76 18.7825 4.94 18.9225 5.14 19.0625C5.24 19.1225 5.32 19.2013 5.42 19.2812C7.07325 20.4003 9.02362 20.9989 11.02 21C13.0164 20.9989 14.9667 20.4003 16.62 19.2812C16.72 19.2213 16.8 19.1425 16.9 19.0812C17.08 18.9425 17.28 18.8025 17.46 18.6625C17.48 18.6425 17.5 18.6425 17.5 18.6225C19.62 16.7637 21 14.0275 21 10.99ZM11 19.7412C9.12 19.7412 7.4 19.1413 5.98 18.1425C6 17.9825 6.04 17.8237 6.08 17.6637C6.19957 17.2303 6.37433 16.8139 6.6 16.425C6.82 16.045 7.08 15.705 7.4 15.405C7.7 15.105 8.06 14.8263 8.42 14.6063C8.8 14.3863 9.2 14.2262 9.64 14.1062C10.0836 13.9874 10.5408 13.9274 11 13.9275C12.3634 13.9172 13.6769 14.4402 14.66 15.385C15.12 15.845 15.48 16.3846 15.74 17.0037C15.88 17.3638 15.98 17.7433 16.04 18.1425C14.564 19.1802 12.8043 19.7384 11 19.7412ZM7.94 10.4913C7.76414 10.0877 7.67554 9.65147 7.68 9.21125C7.68 8.7725 7.76 8.3325 7.94 7.9325C8.12 7.5325 8.36 7.17375 8.66 6.87375C8.96 6.57375 9.32 6.335 9.72 6.155C10.12 5.975 10.56 5.895 11 5.895C11.46 5.895 11.88 5.975 12.28 6.155C12.68 6.335 13.04 6.575 13.34 6.87375C13.64 7.17375 13.88 7.53375 14.06 7.9325C14.24 8.3325 14.32 8.7725 14.32 9.21125C14.32 9.67125 14.24 10.0913 14.06 10.49C13.8873 10.8846 13.6432 11.244 13.34 11.55C13.0339 11.8527 12.6745 12.0964 12.28 12.2688C11.4534 12.6077 10.5266 12.6077 9.7 12.2688C9.30547 12.0964 8.94612 11.8527 8.64 11.55C8.33656 11.2483 8.0983 10.8888 7.94 10.4913ZM17.22 17.1238C17.22 17.0837 17.2 17.0638 17.2 17.0238C17.0037 16.3979 16.7137 15.8053 16.34 15.2663C15.966 14.7232 15.5067 14.2441 14.98 13.8475C14.5776 13.5447 14.1413 13.2896 13.68 13.0875C13.8889 12.9478 14.0832 12.7874 14.26 12.6087C14.5582 12.3144 14.82 11.9854 15.04 11.6287C15.4845 10.9017 15.7133 10.0633 15.7 9.21125C15.7065 8.58061 15.584 7.9553 15.34 7.37375C15.0994 6.81331 14.7531 6.30447 14.32 5.875C13.8865 5.45131 13.3778 5.11218 12.82 4.875C12.2376 4.63107 11.6114 4.50898 10.98 4.51625C10.3485 4.50937 9.72232 4.63189 9.14 4.87625C8.57605 5.11054 8.0657 5.45716 7.64 5.895C7.2141 6.32621 6.87466 6.83494 6.64 7.39375C6.39597 7.9753 6.27346 8.60061 6.28 9.23125C6.28 9.67125 6.34 10.0908 6.46 10.49C6.58 10.91 6.74 11.29 6.96 11.6488C7.16 12.0087 7.44 12.3288 7.74 12.6288C7.92 12.8088 8.12 12.9683 8.34 13.1075C7.87662 13.3138 7.44008 13.5757 7.04 13.8875C6.52 14.2875 6.06 14.7662 5.68 15.2863C5.30284 15.8233 5.01262 16.4164 4.82 17.0438C4.8 17.0837 4.8 17.1238 4.8 17.1437C3.22 15.545 2.24 13.3875 2.24 10.99C2.24 6.175 6.18 2.23875 11 2.23875C15.82 2.23875 19.76 6.175 19.76 10.99C19.7574 13.2899 18.8441 15.4953 17.22 17.1238Z" fill="black" stroke="black" stroke-width="0.6"/>
</svg>
