<svg width="22" height="23" viewBox="0 0 22 23" fill="none" xmlns="http://www.w3.org/2000/svg">
<path d="M22 11.8766C22 5.81007 17.072 0.887573 11 0.887573C4.928 0.887573 0 5.81007 0 11.8766C0 15.2178 1.518 18.2291 3.894 20.2503C3.916 20.2723 3.938 20.2723 3.938 20.2943C4.136 20.4483 4.334 20.6023 4.554 20.7563C4.664 20.8223 4.752 20.9089 4.862 20.9969C6.68058 22.2279 8.82598 22.8864 11.022 22.8876C13.218 22.8864 15.3634 22.2279 17.182 20.9969C17.292 20.9309 17.38 20.8443 17.49 20.7769C17.688 20.6243 17.908 20.4703 18.106 20.3163C18.128 20.2943 18.15 20.2943 18.15 20.2723C20.482 18.2277 22 15.2178 22 11.8766ZM11 21.5029C8.932 21.5029 7.04 20.8429 5.478 19.7443C5.5 19.5683 5.544 19.3937 5.588 19.2177C5.71952 18.7409 5.91176 18.2829 6.16 17.8551C6.402 17.4371 6.688 17.0631 7.04 16.7331C7.37 16.4031 7.766 16.0964 8.162 15.8544C8.58 15.6124 9.02 15.4364 9.504 15.3044C9.99192 15.1738 10.4949 15.1077 11 15.1078C12.4998 15.0965 13.9446 15.6718 15.026 16.7111C15.532 17.2171 15.928 17.8106 16.214 18.4917C16.368 18.8877 16.478 19.3052 16.544 19.7443C14.9204 20.8858 12.9847 21.4998 11 21.5029ZM7.634 11.3279C7.44055 10.884 7.34309 10.4042 7.348 9.91995C7.348 9.43732 7.436 8.95332 7.634 8.51332C7.832 8.07332 8.096 7.6787 8.426 7.3487C8.756 7.0187 9.152 6.75607 9.592 6.55807C10.032 6.36007 10.516 6.27207 11 6.27207C11.506 6.27207 11.968 6.36007 12.408 6.55807C12.848 6.75607 13.244 7.02007 13.574 7.3487C13.904 7.6787 14.168 8.0747 14.366 8.51332C14.564 8.95332 14.652 9.43732 14.652 9.91995C14.652 10.4259 14.564 10.8879 14.366 11.3266C14.176 11.7607 13.9075 12.156 13.574 12.4926C13.2373 12.8256 12.842 13.0936 12.408 13.2832C11.4987 13.6561 10.4793 13.6561 9.57 13.2832C9.13601 13.0936 8.74073 12.8256 8.404 12.4926C8.07021 12.1607 7.80813 11.7652 7.634 11.3279ZM17.842 18.6237C17.842 18.5797 17.82 18.5577 17.82 18.5137C17.604 17.8252 17.2851 17.1734 16.874 16.5804C16.4626 15.9831 15.9574 15.4561 15.378 15.0198C14.9353 14.6867 14.4554 14.4061 13.948 14.1838C14.1778 14.0301 14.3915 13.8537 14.586 13.6572C14.914 13.3334 15.202 12.9715 15.444 12.5792C15.9329 11.7794 16.1847 10.8572 16.17 9.91995C16.1772 9.22624 16.0424 8.5384 15.774 7.8987C15.5093 7.28222 15.1284 6.72249 14.652 6.25007C14.1752 5.78402 13.6156 5.41097 13.002 5.15007C12.3613 4.88175 11.6725 4.74745 10.978 4.75545C10.2834 4.74788 9.59456 4.88265 8.954 5.15145C8.33366 5.40916 7.77226 5.79044 7.304 6.27207C6.83551 6.7464 6.46213 7.30601 6.204 7.9207C5.93557 8.5604 5.80081 9.24825 5.808 9.94195C5.808 10.4259 5.874 10.8875 6.006 11.3266C6.138 11.7886 6.314 12.2066 6.556 12.6012C6.776 12.9972 7.084 13.3492 7.414 13.6792C7.612 13.8772 7.832 14.0527 8.074 14.2058C7.56428 14.4327 7.08408 14.7209 6.644 15.0638C6.072 15.5038 5.566 16.0304 5.148 16.6024C4.73313 17.1932 4.41388 17.8456 4.202 18.5357C4.18 18.5797 4.18 18.6237 4.18 18.6457C2.442 16.8871 1.364 14.5138 1.364 11.8766C1.364 6.58007 5.698 2.2502 11 2.2502C16.302 2.2502 20.636 6.58007 20.636 11.8766C20.6331 14.4065 19.6286 16.8324 17.842 18.6237Z" fill="#040404"/>
</svg>
