<svg width="20" height="12" viewBox="0 0 20 12" fill="none" xmlns="http://www.w3.org/2000/svg">
<path d="M7.64135 5.62613C7.75851 5.50897 7.94846 5.50897 8.06562 5.62613L11.6414 9.20187C11.7585 9.31903 11.9485 9.31903 12.0656 9.20187L17.3484 3.91913C17.4655 3.80197 17.6555 3.80197 17.7726 3.91913L19.3414 5.48787C19.5303 5.67686 19.8535 5.54301 19.8535 5.27574V0.3C19.8535 0.134315 19.7192 0 19.5535 0H14.5777C14.3105 0 14.1766 0.323142 14.3656 0.512132L15.9344 2.08087C16.0515 2.19803 16.0515 2.38797 15.9344 2.50513L12.0656 6.37387C11.9485 6.49103 11.7585 6.49103 11.6414 6.37387L8.06562 2.79813C7.94846 2.68097 7.75851 2.68097 7.64135 2.79813L0.358616 10.0809C0.241459 10.198 0.241459 10.388 0.358616 10.5051L1.34835 11.4949C1.46551 11.612 1.65546 11.612 1.77262 11.4949L7.64135 5.62613Z" fill="#040404"/>
</svg>
