<svg width="24" height="14" viewBox="0 0 24 14" fill="none" xmlns="http://www.w3.org/2000/svg">
<path d="M9.40084 6.7358C9.51559 6.63044 9.6919 6.63044 9.80665 6.7358L13.8663 10.4633C13.981 10.5687 14.1573 10.5687 14.2721 10.4633L20.2373 4.98608C20.352 4.88072 20.5284 4.88072 20.6431 4.98608L22.4971 6.68841C22.6895 6.86503 23 6.72858 23 6.46743V1.3C23 1.13432 22.8657 1 22.7 1H17.0722C16.7987 1 16.6678 1.33601 16.8693 1.52098L18.621 3.12941C18.7505 3.24829 18.7505 3.45249 18.621 3.57137L14.2721 7.56453C14.1573 7.66989 13.981 7.66989 13.8663 7.56453L9.80664 3.83702C9.69189 3.73166 9.51559 3.73166 9.40084 3.83702L1.24067 11.3296C1.1112 11.4485 1.1112 11.6527 1.24067 11.7716L2.37562 12.8137C2.49037 12.9191 2.66668 12.9191 2.78143 12.8137L9.40084 6.7358Z" fill="black" stroke="black" stroke-width="0.4"/>
</svg>
