<svg width="23" height="22" viewBox="0 0 23 22" fill="none" xmlns="http://www.w3.org/2000/svg">
<path d="M8.49487 6.62613C8.61203 6.50897 8.80197 6.50897 8.91913 6.62613L12.4949 10.2019C12.612 10.319 12.802 10.319 12.9191 10.2019L18.2019 4.91913C18.319 4.80197 18.509 4.80197 18.6261 4.91913L20.1949 6.48787C20.3839 6.67686 20.707 6.54301 20.707 6.27574V1.3C20.707 1.13431 20.5727 1 20.407 1H15.4313C15.164 1 15.0301 1.32314 15.2191 1.51213L16.7879 3.08087C16.905 3.19803 16.905 3.38797 16.7879 3.50513L12.9191 7.37387C12.802 7.49103 12.612 7.49103 12.4949 7.37387L8.91913 3.79813C8.80197 3.68097 8.61202 3.68097 8.49487 3.79813L1.21213 11.0809C1.09497 11.198 1.09497 11.388 1.21213 11.5051L2.20187 12.4949C2.31903 12.612 2.50897 12.612 2.62613 12.4949L8.49487 6.62613Z" fill="black" stroke="black" stroke-width="0.4"/>
<path d="M9 15.457C9 15.8712 8.6642 16.207 8.25 16.207H1.75C1.33579 16.207 1 15.8712 1 15.457C1 15.0428 1.33579 14.707 1.75 14.707H8.25C8.6642 14.707 9 15.0428 9 15.457Z" fill="black" stroke="black" stroke-width="0.4"/>
<path d="M7 18.957C7 19.3712 6.6642 19.707 6.25 19.707H1.75C1.33579 19.707 1 19.3712 1 18.957C1 18.5428 1.33579 18.207 1.75 18.207H6.25C6.6642 18.207 7 18.5428 7 18.957Z" fill="black" stroke="black" stroke-width="0.4"/>
</svg>
