<svg width="20" height="20" viewBox="0 0 20 20" fill="none" xmlns="http://www.w3.org/2000/svg">
<path d="M7.64135 6.33316C7.75851 6.21601 7.94846 6.21601 8.06562 6.33316L11.6414 9.9089C11.7585 10.0261 11.9485 10.0261 12.0656 9.9089L17.3484 4.62616C17.4655 4.50901 17.6555 4.50901 17.7726 4.62616L19.3414 6.1949C19.5303 6.38389 19.8535 6.25004 19.8535 5.98277V1.00703C19.8535 0.841346 19.7192 0.707031 19.5535 0.707031H14.5777C14.3105 0.707031 14.1766 1.03017 14.3656 1.21916L15.9344 2.7879C16.0515 2.90506 16.0515 3.09501 15.9344 3.21216L12.0656 7.0809C11.9485 7.19806 11.7585 7.19806 11.6414 7.0809L8.06562 3.50516C7.94846 3.38801 7.75851 3.38801 7.64135 3.50516L0.358616 10.7879C0.241459 10.9051 0.241459 11.095 0.358616 11.2122L1.34835 12.2019C1.46551 12.3191 1.65546 12.3191 1.77262 12.2019L7.64135 6.33316Z" fill="#040404"/>
<path d="M8.14648 15.1641C8.14648 15.5783 7.81068 15.9141 7.39648 15.9141H0.896484C0.482274 15.9141 0.146484 15.5783 0.146484 15.1641C0.146484 14.7499 0.482274 14.4141 0.896484 14.4141H7.39648C7.81068 14.4141 8.14648 14.7499 8.14648 15.1641Z" fill="#040404"/>
<path d="M6.14648 18.6641C6.14648 19.0783 5.81068 19.4141 5.39648 19.4141H0.896484C0.482274 19.4141 0.146484 19.0783 0.146484 18.6641C0.146484 18.2499 0.482274 17.9141 0.896484 17.9141H5.39648C5.81068 17.9141 6.14648 18.2499 6.14648 18.6641Z" fill="#040404"/>
</svg>
