<svg width="32" height="21" viewBox="0 0 32 21" fill="none" xmlns="http://www.w3.org/2000/svg">
<path d="M14 4.72998C15.1046 4.72998 16 3.83455 16 2.72998C16 1.62541 15.1046 0.72998 14 0.72998C12.8954 0.72998 12 1.62541 12 2.72998C12 3.83455 12.8954 4.72998 14 4.72998Z" fill="#040404"/>
<path d="M12.777 9.69895C13.0066 10.041 13.3358 10.3042 13.7201 10.4527C14.1044 10.6011 14.5251 10.6278 14.925 10.5289L18.241 9.69995L17.758 7.75995L14.442 8.58895L13.063 6.52195C12.7684 6.08051 12.3111 5.77352 11.791 5.66795L7.945 4.89795C7.51474 4.8116 7.06802 4.86931 6.67383 5.06215C6.27964 5.255 5.9599 5.57227 5.764 5.96495L4.106 9.28095L5.895 10.1759L7.553 6.85895L9.52 7.25295L4.434 15.7299H0V17.7299H4.434C5.132 17.7299 5.789 17.3579 6.149 16.7589L8.067 13.5629L13.236 14.5969L15.052 20.0459L16.948 19.4129L15.133 13.9649C15.021 13.6305 14.8228 13.3314 14.5584 13.0979C14.294 12.8644 13.9728 12.7047 13.627 12.6349L10.588 12.0279L12.36 9.07395L12.777 9.69895Z" fill="#040404"/>
<path d="M28.241 8.63794C28.241 9.05214 27.9052 9.38794 27.491 9.38794H20.991C20.5768 9.38794 20.241 9.05214 20.241 8.63794C20.241 8.22373 20.5768 7.88794 20.991 7.88794H27.491C27.9052 7.88794 28.241 8.22373 28.241 8.63794Z" fill="#040404"/>
<path d="M26.241 12.1379C26.241 12.5521 25.9052 12.8879 25.491 12.8879H20.991C20.5768 12.8879 20.241 12.5521 20.241 12.1379C20.241 11.7237 20.5768 11.3879 20.991 11.3879H25.491C25.9052 11.3879 26.241 11.7237 26.241 12.1379Z" fill="#040404"/>
</svg>
