<svg width="19" height="20" viewBox="0 0 19 20" fill="none" xmlns="http://www.w3.org/2000/svg">
<path d="M14 4.34204C15.1046 4.34204 16 3.44661 16 2.34204C16 1.23747 15.1046 0.342041 14 0.342041C12.8954 0.342041 12 1.23747 12 2.34204C12 3.44661 12.8954 4.34204 14 4.34204Z" fill="black"/>
<path d="M12.777 9.31101C13.0066 9.65309 13.3358 9.91623 13.7201 10.0647C14.1044 10.2132 14.5251 10.2398 14.925 10.141L18.241 9.31201L17.758 7.37201L14.442 8.20101L13.063 6.13401C12.7684 5.69258 12.3111 5.38558 11.791 5.28001L7.945 4.51001C7.51474 4.42366 7.06802 4.48137 6.67383 4.67422C6.27964 4.86706 5.9599 5.18433 5.764 5.57701L4.106 8.89301L5.895 9.78801L7.553 6.47101L9.52 6.86501L4.434 15.342H0V17.342H4.434C5.132 17.342 5.789 16.97 6.149 16.371L8.067 13.175L13.236 14.209L15.052 19.658L16.948 19.025L15.133 13.577C15.021 13.2425 14.8228 12.9435 14.5584 12.71C14.294 12.4765 13.9728 12.3168 13.627 12.247L10.588 11.64L12.36 8.68601L12.777 9.31101Z" fill="black"/>
</svg>
