<svg width="20" height="20" viewBox="0 0 20 20" fill="none" xmlns="http://www.w3.org/2000/svg">
<path d="M14.8794 4.414C15.984 4.414 16.8794 3.51857 16.8794 2.414C16.8794 1.30943 15.984 0.414001 14.8794 0.414001C13.7748 0.414001 12.8794 1.30943 12.8794 2.414C12.8794 3.51857 13.7748 4.414 14.8794 4.414Z" fill="#040404"/>
<path d="M13.6564 9.38297C13.886 9.72505 14.2152 9.98819 14.5995 10.1367C14.9838 10.2852 15.4045 10.3118 15.8044 10.213L19.1204 9.38397L18.6374 7.44397L15.3214 8.27297L13.9424 6.20597C13.6478 5.76454 13.1905 5.45754 12.6704 5.35197L8.82439 4.58197C8.39414 4.49562 7.94742 4.55333 7.55323 4.74618C7.15903 4.93902 6.8393 5.25629 6.64339 5.64897L4.98539 8.96497L6.77439 9.85997L8.43239 6.54297L10.3994 6.93697L5.31339 15.414H0.879395V17.414H5.31339C6.01139 17.414 6.66839 17.042 7.02839 16.443L8.94639 13.247L14.1154 14.281L15.9314 19.73L17.8274 19.097L16.0124 13.649C15.9004 13.3145 15.7022 13.0154 15.4378 12.7819C15.1734 12.5485 14.8522 12.3888 14.5064 12.319L11.4674 11.712L13.2394 8.75797L13.6564 9.38297Z" fill="#040404"/>
</svg>
